<?xml version="1.0" encoding="UTF-8"?>
<svg id="Layer_2" data-name="Layer 2" xmlns="http://www.w3.org/2000/svg" viewBox="0 0 358.22 354.06">
  <defs>
    <style>
      .cls-1 {
        fill: #00412d;
        stroke-width: 0px;
      }
    </style>
  </defs>
  <g id="Layer_3" data-name="Layer 3">
    <path class="cls-1" d="M188.56,354.06c-93.55,0-169.67-76.11-169.67-169.67S95,14.73,188.56,14.73s169.67,76.11,169.67,169.67-76.11,169.67-169.67,169.67ZM188.56,28.73c-85.83,0-155.67,69.83-155.67,155.67s69.83,155.67,155.67,155.67,155.67-69.83,155.67-155.67S274.39,28.73,188.56,28.73Z"/>
    <path class="cls-1" d="M188.56,294.51c-60.72,0-110.11-49.4-110.11-110.11s49.4-110.11,110.11-110.11,110.11,49.4,110.11,110.11-49.4,110.11-110.11,110.11ZM188.56,88.29c-53,0-96.11,43.12-96.11,96.11s43.12,96.11,96.11,96.11,96.11-43.12,96.11-96.11-43.12-96.11-96.11-96.11Z"/>
    <path class="cls-1" d="M188.56,238.51c-29.84,0-54.11-24.27-54.11-54.11s24.27-54.11,54.11-54.11,54.11,24.27,54.11,54.11-24.27,54.11-54.11,54.11ZM188.56,144.29c-22.12,0-40.11,17.99-40.11,40.11s17.99,40.11,40.11,40.11,40.11-17.99,40.11-40.11-17.99-40.11-40.11-40.11Z"/>
    <g>
      <line class="cls-1" x1="42.78" y1="39.81" x2="184" y2="178.06"/>
      <rect class="cls-1" x="106.39" y="10.12" width="14" height="197.63" transform="translate(-43.78 113.75) rotate(-45.61)"/>
    </g>
    <polyline class="cls-1" points="193.51 157.32 204.74 198.81 163.26 187.57"/>
    <polygon class="cls-1" points="0 29.29 25.89 24.99 31.22 0 56.53 25.31 56.53 53.27 25.89 53.27 0 29.29"/>
  </g>
</svg>