<?xml version="1.0" encoding="UTF-8"?>
<svg id="Layer_2" data-name="Layer 2" xmlns="http://www.w3.org/2000/svg" viewBox="0 0 409 418.67">
  <defs>
    <style>
      .cls-1 {
        fill: #00412d;
        stroke-width: 0px;
      }
    </style>
  </defs>
  <g id="Layer_3" data-name="Layer 3">
    <path class="cls-1" d="M348.5,19.65h50.68c5.43,0,9.83-4.4,9.83-9.83s-4.4-9.83-9.83-9.83H12.77C7.35,0,2.95,4.4,2.95,9.83s4.4,9.83,9.83,9.83h52.97L14.08,116.89H0c0,43.2,35.02,78.22,78.22,78.22s78.22-35.02,78.22-78.22h-17.31L94.46,19.65h101.69v320.71c-57.95,2.89-108.66,33.23-139.4,78.3h296.96c-30.48-44.68-80.57-74.9-137.9-78.23V19.65h103.98l-51.67,97.24h-15.56c0,43.2,35.02,78.22,78.22,78.22s78.22-35.02,78.22-78.22h-15.83l-44.67-97.24ZM33.33,116.89L80.04,28.98l40.38,87.91H33.33ZM287.37,116.89l46.71-87.91,40.38,87.91h-87.09Z"/>
  </g>
</svg>