<?xml version="1.0" encoding="UTF-8"?>
<svg id="Layer_2" data-name="Layer 2" xmlns="http://www.w3.org/2000/svg" viewBox="0 0 427.16 251.01">
  <defs>
    <style>
      .cls-1 {
        fill: #00412d;
        stroke-width: 0px;
      }
    </style>
  </defs>
  <g id="Layer_3" data-name="Layer 3">
    <g>
      <path class="cls-1" d="M216.02,38.75c-46.6,0-84.52,37.92-84.52,84.52s37.92,84.52,84.52,84.52,84.52-37.92,84.52-84.52-37.92-84.52-84.52-84.52ZM216.02,165.78c-23.44,0-42.52-19.07-42.52-42.52s19.07-42.52,42.52-42.52,42.52,19.07,42.52,42.52-19.07,42.52-42.52,42.52Z"/>
      <path class="cls-1" d="M427.16,125.45c-21.04-29.38-46.56-54.55-75.85-74.82C323.95,31.69,278.16,0,216.14,0c-62.22,0-106.5,30.89-142.08,55.71C46.29,75.08,21.37,98.44,0,125.15l.44.35-.44.35c21.37,26.71,46.29,50.07,74.05,69.44,35.58,24.82,79.86,55.71,142.08,55.71,0,0,0,0,0,0,62.02,0,107.81-31.69,135.17-50.63,29.29-20.27,54.81-45.45,75.85-74.82l-.08-.06.08-.06ZM343.34,188.88c-27.7,19.17-69.55,48.14-127.2,48.14-57.82,0-100.1-29.49-134.07-53.19-23.72-16.54-45.26-36.13-64.19-58.32,18.92-22.18,40.47-41.77,64.19-58.32C116.04,43.49,158.32,14,216.14,14c57.66,0,99.51,28.97,127.21,48.14,25.23,17.46,47.53,38.76,66.41,63.37-18.88,24.61-41.18,45.9-66.41,63.37Z"/>
    </g>
  </g>
</svg>